<svg id="Place_Your_Art_Here" data-name="Place Your Art Here" xmlns="http://www.w3.org/2000/svg" viewBox="0 0 1417.28 1402.51"><path d="M743.05,570.92V428H701v45.26a149.22,149.22,0,1,0,0,207.92v45.26h42.06V583.54c.09-2.09.16-4.19.16-6.31S743.14,573,743.05,570.92ZM594,684.23a107,107,0,1,1,107-107A107,107,0,0,1,594,684.23Z" transform="translate(-41.36 -48.74)"/><path d="M810.93,577.23h.16a107,107,0,1,1,214,0h42.26A149.18,149.18,0,0,0,810.93,473.44V428H768.87V726.45h42.06Z" transform="translate(-41.36 -48.74)"/><path d="M732.71,871.43,698.19,906a107,107,0,0,1-165,105.53L681.52,863.14l30.25-30.26a147,147,0,0,0-29.72-29.71,149.11,149.11,0,1,0,50.66,68.26Zm-215.9-24.62a107,107,0,0,1,135-13.39L503.44,981.78A107,107,0,0,1,516.81,846.81Z" transform="translate(-41.36 -48.74)"/><path d="M1067.13,916.16V773.25h-42.06v45.26a149.22,149.22,0,1,0,0,207.92v45.26h42.06V928.78c.09-2.1.16-4.19.16-6.31S1067.22,918.26,1067.13,916.16ZM918.07,1029.47a107,107,0,1,1,107-107A107,107,0,0,1,918.07,1029.47Z" transform="translate(-41.36 -48.74)"/><path d="M63,829.47a15,15,0,0,1,20.74-3.64,14.23,14.23,0,0,1,6.13,9.64,14.46,14.46,0,0,1-.69,7.66,14.93,14.93,0,0,1-4.41,6.29A14.9,14.9,0,0,1,63,829.47Z" transform="translate(-41.36 -48.74)"/><path d="M77.48,998.91A33.74,33.74,0,0,1,140,973.5a30.5,30.5,0,0,1-1.58,27.3l-7-3a28.4,28.4,0,0,0,3.46-10.41A22.5,22.5,0,0,0,133,976.34a25.6,25.6,0,0,0-20.14-15.75,26,26,0,0,0-13.8,1.79A25.89,25.89,0,0,0,82.83,983a25.25,25.25,0,0,0,1.64,13.07,22.61,22.61,0,0,0,6.42,9.22,28.67,28.67,0,0,0,9.74,5l-3,7A30.48,30.48,0,0,1,77.48,998.91Z" transform="translate(-41.36 -48.74)"/><path d="M108.8,1055.74a33.74,33.74,0,0,1,63.26-15.67,32.92,32.92,0,0,1,4.2,17,33.86,33.86,0,0,1-51.15,28.25,33.71,33.71,0,0,1-16.31-29.53Zm20.11,23a25.58,25.58,0,0,0,12.91,3.51,27,27,0,0,0,23-12.7,25.59,25.59,0,0,0,3.9-12.8A25.67,25.67,0,0,0,156.15,1034a25.72,25.72,0,0,0-12.91-3.52,27.11,27.11,0,0,0-23,12.71,25.61,25.61,0,0,0-3.89,12.8,25.67,25.67,0,0,0,12.57,22.76Z" transform="translate(-41.36 -48.74)"/><path d="M197.9,1086.35l4.19,5.71-15.31,41.85,44.57-2,4.14,5.64-52.61,38.58-4.52-6.17,41.11-30.14-38.73,1.71-3.09-4.21,13.43-36.54-41.27,30.26-4.51-6.17Z" transform="translate(-41.36 -48.74)"/><path d="M271.85,1181.66a19.35,19.35,0,0,1-.05,10.19A19.88,19.88,0,0,1,257,1205.54a19.42,19.42,0,0,1-10.16-.7A21.28,21.28,0,0,1,238,1199l-10.74-11.64-19.18,17.7-5.18-5.61,47.92-44.26,15.81,17.12A21.78,21.78,0,0,1,271.85,1181.66ZM251.74,1198a11.1,11.1,0,0,0,9.07-3.17,11.74,11.74,0,0,0,3.92-8.38,12.49,12.49,0,0,0-3.75-9.28l-10.43-11.3-17.8,16.43,8.85,9.59C245,1195.6,248.4,1197.63,251.74,1198Z" transform="translate(-41.36 -48.74)"/><path d="M293.37,1267.57,267.8,1245l-14.7,6.66-6.08-5.37,65.19-29.46,3.63,3.2-21.18,68.33-6.08-5.37Zm2.26-7.2,10.13-32.58-31.08,14.08Z" transform="translate(-41.36 -48.74)"/><path d="M321.36,1306.65a21.4,21.4,0,0,1-2.27-9.44,20.75,20.75,0,0,1,2-9.1l7.34,1.6a16.73,16.73,0,0,0-1.47,10.19,12.65,12.65,0,0,0,5.37,8.34,13.32,13.32,0,0,0,9.6,2.77,11.12,11.12,0,0,0,7.95-4.84,11.28,11.28,0,0,0,2.17-8.6,18.09,18.09,0,0,0-4.88-9.18q-7.19-8.06-8.55-14.36a14.66,14.66,0,0,1,2.76-12.07,15.84,15.84,0,0,1,7-5.48,17.49,17.49,0,0,1,9.23-1.11,20.36,20.36,0,0,1,9.23,3.76,19.89,19.89,0,0,1,7.45,9.6,18.91,18.91,0,0,1-.08,12.23l-7.43-1.79a12.85,12.85,0,0,0,.24-7.68,11.4,11.4,0,0,0-4.53-6.31,12.2,12.2,0,0,0-8.24-2.59,8.76,8.76,0,0,0-6.65,3.83,7.9,7.9,0,0,0-1.19,6.6,18.9,18.9,0,0,0,4.6,8.13q7.23,8.3,8.58,15.52t-3.49,14q-5.22,7.27-12.89,8.18t-15.22-4.52A20.56,20.56,0,0,1,321.36,1306.65Z" transform="translate(-41.36 -48.74)"/><path d="M375.06,1342.78a21.39,21.39,0,0,1-3.11-9.21,20.67,20.67,0,0,1,1.14-9.23l7.45.94a16.7,16.7,0,0,0-.56,10.28,12.68,12.68,0,0,0,6.09,7.83,13.33,13.33,0,0,0,9.8,1.91,11.16,11.16,0,0,0,7.5-5.53,11.31,11.31,0,0,0,1.4-8.76,18.12,18.12,0,0,0-5.67-8.72q-7.89-7.36-9.8-13.54a14.6,14.6,0,0,1,1.68-12.27,15.88,15.88,0,0,1,6.47-6.08,17.71,17.71,0,0,1,9.1-1.93,20.39,20.39,0,0,1,9.53,2.94,19.78,19.78,0,0,1,8.26,8.9,18.9,18.9,0,0,1,1,12.19l-7.57-1.13a12.76,12.76,0,0,0-.44-7.67,11.42,11.42,0,0,0-5.07-5.88,12.23,12.23,0,0,0-8.44-1.85,8.79,8.79,0,0,0-6.28,4.4,8,8,0,0,0-.6,6.69,19,19,0,0,0,5.3,7.69q7.94,7.62,9.93,14.7T410,1343.66q-4.56,7.69-12.11,9.29t-15.57-3.15A20.48,20.48,0,0,1,375.06,1342.78Z" transform="translate(-41.36 -48.74)"/><path d="M513.62,1376.43a14.89,14.89,0,0,1,24.71-16.17,14.92,14.92,0,0,1,3.33,6.91,14.47,14.47,0,0,1-.56,7.68,14.25,14.25,0,0,1-7.6,8.52,15,15,0,0,1-19.88-6.94Z" transform="translate(-41.36 -48.74)"/><path d="M646.65,1441.18a21.08,21.08,0,0,1-6.44-7.26,20.55,20.55,0,0,1-2.55-9l7.23-2a16.72,16.72,0,0,0,3.48,9.7,12.69,12.69,0,0,0,8.66,4.84,13.34,13.34,0,0,0,9.78-2.06,12,12,0,0,0,2.63-16.62,18.17,18.17,0,0,0-8.62-5.82q-10.11-3.73-14.29-8.67a14.66,14.66,0,0,1-3.22-12,15.83,15.83,0,0,1,3.6-8.11,17.52,17.52,0,0,1,7.63-5.31,20.35,20.35,0,0,1,9.92-1,19.83,19.83,0,0,1,11.07,5,18.93,18.93,0,0,1,5.69,10.83l-7.41,1.91a13,13,0,0,0-3.39-6.9,11.41,11.41,0,0,0-7-3.44,12.22,12.22,0,0,0-8.49,1.57,8.78,8.78,0,0,0-4.08,6.5,8,8,0,0,0,2,6.4,18.94,18.94,0,0,0,7.88,5q10.28,3.95,14.86,9.69t3.46,14q-1.2,8.88-7.54,13.28T656,1444.86A20.45,20.45,0,0,1,646.65,1441.18Z" transform="translate(-41.36 -48.74)"/><path d="M717.09,1446.24a33.73,33.73,0,0,1,18.68-62.44,33.36,33.36,0,0,1,28.58,17.65,33.87,33.87,0,0,1-13.54,45.76,33.75,33.75,0,0,1-33.72-1Zm30-5.62a25.48,25.48,0,0,0,9.59-9.33,27.1,27.1,0,0,0,.77-26.26,25.72,25.72,0,0,0-9-9.87,25.68,25.68,0,0,0-26-.75,25.7,25.7,0,0,0-9.59,9.33,27,27,0,0,0-.75,26.27,25.51,25.51,0,0,0,9,9.86,25.6,25.6,0,0,0,26,.75Z" transform="translate(-41.36 -48.74)"/><path d="M838.19,1380.52l3.39,39.18a31.82,31.82,0,0,1-1.68,14,22.47,22.47,0,0,1-7.71,10.35,28.28,28.28,0,0,1-27.29,2.37,22.46,22.46,0,0,1-9.38-8.87,32,32,0,0,1-4.07-13.54l-3.4-39.18,7.62-.66,3.39,39.18q.75,8.64,6,13.65t13.18,4.33q8-.69,12.26-6.53t3.51-14.47l-3.39-39.18Z" transform="translate(-41.36 -48.74)"/><path d="M907.51,1375.8l-20.78,4,10.89,56.74-7.5,1.44-10.89-56.74-20.78,4-1.4-7.32,49.05-9.41Z" transform="translate(-41.36 -48.74)"/><path d="M975,1348.68l19,62.4-7.31,2.23L978,1384.78,943,1395.42l8.68,28.52-7.31,2.23-19-62.41,7.32-2.23,8.14,26.75,34.94-10.64-8.13-26.74Z" transform="translate(-41.36 -48.74)"/><path d="M1084.85,1341.32a16.76,16.76,0,0,1,6.49,7.25,17.38,17.38,0,0,1,1.81,9.71,18.57,18.57,0,0,1-3.49,9,20.32,20.32,0,0,1-7.64,6.42l-21,10.33-28.84-58.51,19.15-9.44a22.44,22.44,0,0,1,9.87-2.42,17.89,17.89,0,0,1,9.13,2.31,15.35,15.35,0,0,1,6.3,6.76,17.14,17.14,0,0,1,1.88,8.68,14.27,14.27,0,0,1-3,8A15.16,15.16,0,0,1,1084.85,1341.32Zm-42.5-12.46,9.4,19.06,11.87-5.84q5.18-2.55,6.75-6.86a10.43,10.43,0,0,0-.49-8.48,9.43,9.43,0,0,0-6.16-5.12q-4.23-1.2-9.24,1.27Zm42.35,32a9.89,9.89,0,0,0-.38-8.8,10.27,10.27,0,0,0-6.77-5.6c-3.08-.84-6.7-.22-10.89,1.83l-11.87,5.85,9.81,19.9,11.87-5.85Q1082.82,1365,1084.7,1360.83Z" transform="translate(-41.36 -48.74)"/><path d="M1152.48,1316.2l-28.84,18.21,2.27,16-6.85,4.33-10-70.83,4.1-2.59,59.64,39.49-6.85,4.33Zm-6.28-4.19-28.44-18.85,4.8,33.78Z" transform="translate(-41.36 -48.74)"/><path d="M1198.41,1272l14.36,18.11-6,4.75-14.3-18-44.93-18.24,6.86-5.44,36.54,15.62-6.9-39.14,6.87-5.44Z" transform="translate(-41.36 -48.74)"/><path d="M1285.28,1177.09a15,15,0,0,1-16.11-13.56,14.21,14.21,0,0,1,3.45-10.89,14.52,14.52,0,0,1,6.32-4.4,15,15,0,0,1,7.65-.65,14.9,14.9,0,0,1-1.31,29.5Z" transform="translate(-41.36 -48.74)"/><path d="M1405.84,1057.28a33.91,33.91,0,0,1-58.59,1.71,33.45,33.45,0,0,1-5-16.55,33.09,33.09,0,0,1,3.92-16.75,30.47,30.47,0,0,1,21.94-16.32l2.24,7.31a28.6,28.6,0,0,0-10.2,4,22.59,22.59,0,0,0-7.31,8.52,25.6,25.6,0,0,0,.86,25.55,27.26,27.26,0,0,0,23.76,12.59,25.61,25.61,0,0,0,12.7-4,25.08,25.08,0,0,0,9-9.64,22.45,22.45,0,0,0,2.94-10.83,28.64,28.64,0,0,0-2.39-10.72l7.3-2.24A30.44,30.44,0,0,1,1405.84,1057.28Z" transform="translate(-41.36 -48.74)"/><path d="M1429.63,964.7l-12.47,31.75,11.29,11.54-3,7.55-50-51.16,1.77-4.51,71.45-3.5-3,7.55Zm-7.54.34L1388,966.68l23.86,24.39Z" transform="translate(-41.36 -48.74)"/><path d="M1445.09,844.06a14.9,14.9,0,0,1-23.36-14.58,14.63,14.63,0,0,1,3.2-7,15,15,0,0,1,6.24-4.46,14.49,14.49,0,0,1,7.66-.76,14.94,14.94,0,0,1,6.26,26.81Z" transform="translate(-41.36 -48.74)"/><path d="M95.79,654.52l-5,34.85,14.09,8.89-1.18,8.28L41.36,667.1l.7-5L113,641.61l-1.17,8.28Zm-7.49,2.14-33.84,9.77,29.78,18.79Z" transform="translate(-41.36 -48.74)"/><path d="M124.54,599.86a34.53,34.53,0,0,1-42.33,24.88,34.55,34.55,0,0,1-25.11-42.2,31.46,31.46,0,0,1,18.08-21.66l4,6.79a29.57,29.57,0,0,0-9.27,6.51,23.33,23.33,0,0,0-5.28,10.31,26.48,26.48,0,0,0,7,25.43,27.2,27.2,0,0,0,38.66-.15A25.92,25.92,0,0,0,117,597.93a23.38,23.38,0,0,0,.34-11.57,29.79,29.79,0,0,0-5-10.18l6.79-4A31.44,31.44,0,0,1,124.54,599.86Z" transform="translate(-41.36 -48.74)"/><path d="M147.93,528.46A34.85,34.85,0,0,1,81,521.1a34,34,0,0,1,1.94-17.64A31.4,31.4,0,0,1,103.4,484l3.2,7.21a29.71,29.71,0,0,0-9.95,5.39,23.19,23.19,0,0,0-6.44,9.63,26.47,26.47,0,0,0,4,26.08,27.21,27.21,0,0,0,38.42,4.32,25.86,25.86,0,0,0,8-11,23.24,23.24,0,0,0,1.68-11.46,29.61,29.61,0,0,0-3.78-10.68l7.21-3.21A31.49,31.49,0,0,1,147.93,528.46Z" transform="translate(-41.36 -48.74)"/><path d="M171.76,439.66l-16.42,31.13,10.25,13.13-3.9,7.4-45.41-58.2,2.34-4.43,73.67,4.62-3.9,7.41Zm-7.78-.51-35.13-2.22,21.68,27.73Z" transform="translate(-41.36 -48.74)"/><path d="M230.71,376.14l-6.12,9L183.3,393l-1.45,2.14,24.55,16.73L202,418.35l-55.64-37.9L161,358.91a21.33,21.33,0,0,1,7.89-7.14,18.43,18.43,0,0,1,9.61-2.06,17.72,17.72,0,0,1,9.1,3.12,17.1,17.1,0,0,1,6.28,7.53,18.76,18.76,0,0,1,1.2,10.19,26.39,26.39,0,0,1-4.62,11.22l-1.57,2.31Zm-46.21,1.57c2.66-3.92,3.77-7.44,3.29-10.55a11.38,11.38,0,0,0-13-9.31c-2.88.52-5.37,2.33-7.46,5.39l-10.23,15,18.44,12.55Z" transform="translate(-41.36 -48.74)"/><path d="M218.31,292.62a30.43,30.43,0,0,1,17-1.35,37.36,37.36,0,0,1,26.22,22.46,30.35,30.35,0,0,1,1.25,17,37.41,37.41,0,0,1-8.69,16.87l-12.26,14.31-51.13-43.77,12.38-14.47A37.09,37.09,0,0,1,218.31,292.62Zm36.63,37a23.11,23.11,0,0,0-1-13.09,29.25,29.25,0,0,0-20.27-17.36,23.23,23.23,0,0,0-13,1,28.66,28.66,0,0,0-11.79,8.58l-7.19,8.41L241.11,351l7.13-8.33A28.8,28.8,0,0,0,254.94,329.62Z" transform="translate(-41.36 -48.74)"/><path d="M297.91,295.28a35,35,0,0,1-40.65-44.54,34.59,34.59,0,0,1,43.58-22.58,35.28,35.28,0,0,1,23.53,25.78,34.68,34.68,0,0,1-26.46,41.34Zm18.26-25.71a26.37,26.37,0,0,0,.43-13.8,27.91,27.91,0,0,0-18.28-20,26.37,26.37,0,0,0-13.78-.84A26.46,26.46,0,0,0,264.72,253a26.37,26.37,0,0,0-.43,13.8,28,28,0,0,0,18.28,20,26.47,26.47,0,0,0,13.78.83,26.41,26.41,0,0,0,19.82-18.08Z" transform="translate(-41.36 -48.74)"/><path d="M429.87,200.79l-9.22,5.76L379.7,197.1l-2.19,1.37,15.74,25.21-6.69,4.18-35.67-57.09L373,157a21,21,0,0,1,10.09-3.35,18.33,18.33,0,0,1,9.63,2,17.75,17.75,0,0,1,7.07,6.52,17.16,17.16,0,0,1,2.72,9.43,18.69,18.69,0,0,1-3,9.8,26.34,26.34,0,0,1-8.75,8.42l-2.36,1.48Zm-42.93-17.16c4-2.52,6.44-5.3,7.26-8.34a10.76,10.76,0,0,0-1.42-8.81,10.63,10.63,0,0,0-6.72-4.94q-4.26-1-9,1.94l-15.42,9.63L373.48,192Z" transform="translate(-41.36 -48.74)"/><path d="M426.69,135.42l9.32,19,28.83-14.14,3.39,6.91-28.84,14.15,10.17,20.72,30.48-15,3.38,6.9-37.55,18.43L416.22,132l37.56-18.42,3.39,6.91Z" transform="translate(-41.36 -48.74)"/><path d="M540.08,136l-33.24,11.56-1.46,16.6-7.9,2.75L504,93.41l4.72-1.64,50.74,53.61-7.91,2.76Zm-5.33-5.68-24.18-25.59-3.08,35.07Z" transform="translate(-41.36 -48.74)"/><path d="M616.72,122.69l1.82,7.48L576.6,140.42,560.6,75l7.66-1.88,14.17,57.92Z" transform="translate(-41.36 -48.74)"/><path d="M681.5,60.69l1.68,21.09,32-2.55.61,7.67-32,2.56,1.83,23,33.85-2.71.6,7.67-41.69,3.34L673,53.66l41.71-3.34.61,7.68Z" transform="translate(-41.36 -48.74)"/><path d="M748.08,115.78a21.9,21.9,0,0,1-7.51-6.65,21.29,21.29,0,0,1-3.73-8.85l7.17-3a17.19,17.19,0,0,0,4.77,9.49,13.13,13.13,0,0,0,9.47,3.88,13.75,13.75,0,0,0,9.76-3.32,11.55,11.55,0,0,0,3.87-8.8A11.68,11.68,0,0,0,768.63,90q-3.32-3.47-9.54-4.9-10.85-2.55-15.73-7.1a15.06,15.06,0,0,1-4.79-11.85,16.26,16.26,0,0,1,2.67-8.75A18,18,0,0,1,748.39,51a20.77,20.77,0,0,1,10-2.27,20.43,20.43,0,0,1,12,3.72,19.5,19.5,0,0,1,7.16,10.39l-7.35,2.88a13.2,13.2,0,0,0-4.33-6.64,11.71,11.71,0,0,0-7.55-2.66,12.54,12.54,0,0,0-8.5,2.67,9,9,0,0,0-3.37,7.17,8.18,8.18,0,0,0,2.89,6.29c2,1.83,4.86,3.2,8.69,4.16q11,2.74,16.44,8.07t5.29,13.87c-.09,6.15-2.11,11-6.07,14.54s-9.14,5.26-15.56,5.16A21,21,0,0,1,748.08,115.78Z" transform="translate(-41.36 -48.74)"/><path d="M849.3,64.23l-21.7-2.32-6.32,59.28-7.84-.82,6.32-59.3-21.71-2.31.81-7.65,51.26,5.46Z" transform="translate(-41.36 -48.74)"/><path d="M894,117.83,859.46,111l-9.64,13.59-8.2-1.61,42.74-60.19,4.9,1L906,135.68l-8.2-1.62Zm-1.73-7.59-8-34.3L864,104.65Z" transform="translate(-41.36 -48.74)"/><path d="M970.63,92.76l-21-6.09L933,143.93l-7.58-2.2L942.1,84.47l-21-6.08L923.28,71l49.49,14.37Z" transform="translate(-41.36 -48.74)"/><path d="M1002.65,104.59l-7.92,19.61,29.79,12-2.88,7.12-29.79-12-8.64,21.4,31.48,12.71-2.88,7.13L973,156.92l25.2-62.42L1037,110.16l-2.88,7.13Z" transform="translate(-41.36 -48.74)"/><path d="M1112,210l-30-18.46-13.78,9.36-7.12-4.39,61.1-41.42,4.26,2.62-9.53,73.2-7.12-4.38Zm1-7.72,4.57-34.92-29.13,19.79Z" transform="translate(-41.36 -48.74)"/><path d="M1136.59,244.27a22.06,22.06,0,0,1-2-9.81,21.3,21.3,0,0,1,2.31-9.33l7.52,1.89a17.13,17.13,0,0,0-1.85,10.47,13.09,13.09,0,0,0,5.27,8.77,13.74,13.74,0,0,0,9.81,3.17,12.38,12.38,0,0,0,10.87-13.54q-.6-4.75-4.73-9.63-7.15-8.52-8.36-15.09a15,15,0,0,1,3.24-12.35,16.36,16.36,0,0,1,7.38-5.44,18.11,18.11,0,0,1,9.56-.84,20.83,20.83,0,0,1,9.39,4.18,20.49,20.49,0,0,1,7.38,10.14,19.53,19.53,0,0,1-.47,12.61l-7.61-2.08a13.21,13.21,0,0,0,.49-7.92,11.73,11.73,0,0,0-4.47-6.65,12.6,12.6,0,0,0-8.41-2.94,9.06,9.06,0,0,0-7,3.73,8.23,8.23,0,0,0-1.43,6.78,19.42,19.42,0,0,0,4.48,8.53q7.18,8.79,8.35,16.29t-4,14.28q-5.62,7.33-13.56,8t-15.56-5.15A21.36,21.36,0,0,1,1136.59,244.27Z" transform="translate(-41.36 -48.74)"/><path d="M1183.38,282.55a22.12,22.12,0,0,1-1.13-10,21.47,21.47,0,0,1,3.17-9.07l7.31,2.6a17.11,17.11,0,0,0-2.81,10.23,13,13,0,0,0,4.43,9.23,13.8,13.8,0,0,0,9.47,4.08,11.57,11.57,0,0,0,8.77-3.94,11.69,11.69,0,0,0,3.32-8.53q-.15-4.79-3.82-10-6.33-9.15-6.92-15.8a15.16,15.16,0,0,1,4.38-12,16.28,16.28,0,0,1,7.86-4.71,18.15,18.15,0,0,1,9.59,0,21,21,0,0,1,9,5.05,20.33,20.33,0,0,1,6.39,10.78,19.55,19.55,0,0,1-1.63,12.51l-7.39-2.78a13.26,13.26,0,0,0,1.23-7.84,11.74,11.74,0,0,0-3.83-7,12.62,12.62,0,0,0-8.1-3.71,9.07,9.07,0,0,0-7.31,3.07,8.17,8.17,0,0,0-2.06,6.6q.35,4,3.67,8.92,6.33,9.43,6.8,17t-5.37,13.84q-6.28,6.76-14.25,6.73t-15-6.58A21.18,21.18,0,0,1,1183.38,282.55Z" transform="translate(-41.36 -48.74)"/><path d="M1231.11,326.68a35,35,0,0,1,45.69-39.34,34.85,34.85,0,0,1,22.72,26.39,34.75,34.75,0,0,1-11.62,32.72,34.61,34.61,0,0,1-16.24,7.89,34.68,34.68,0,0,1-40.55-27.66Zm25.18,19a26.39,26.39,0,0,0,13.77.83,28,28,0,0,0,20.56-17.7,26.42,26.42,0,0,0,1.23-13.75,26.47,26.47,0,0,0-17.51-20.33,26.52,26.52,0,0,0-13.78-.83A28,28,0,0,0,1240,311.59a26.37,26.37,0,0,0-1.23,13.76,26.42,26.42,0,0,0,17.51,20.33Z" transform="translate(-41.36 -48.74)"/><path d="M1290,410.85a34.09,34.09,0,0,1-5.72-16.81,34.5,34.5,0,0,1,3.41-17.48,34.76,34.76,0,0,1,60.34-4.18,31.42,31.42,0,0,1,4,27.94l-7.73-1.57a29.53,29.53,0,0,0,1.38-11.23,23.17,23.17,0,0,0-4.12-10.83A26.42,26.42,0,0,0,1318,364.86a26.81,26.81,0,0,0-13.6,4.63,26.74,26.74,0,0,0-12.19,24.17,25.83,25.83,0,0,0,4.33,12.89,23.09,23.09,0,0,0,8.36,8,29.38,29.38,0,0,0,10.89,3.12l-1.57,7.73A31.43,31.43,0,0,1,1290,410.85Z" transform="translate(-41.36 -48.74)"/><path d="M1373.63,417.05l3.78,6.9-59,32.35-3.79-6.92Z" transform="translate(-41.36 -48.74)"/><path d="M1361.89,512.23,1347.66,480l-16.65-.11-3.38-7.65,73.82.5,2,4.57-49.33,54.93-3.38-7.66Zm5.23-5.77,23.55-26.18-35.21-.21Z" transform="translate(-41.36 -48.74)"/><path d="M1426.42,560.57l-7.06-20.66-56.42,19.28-2.55-7.46,56.42-19.28-7.06-20.66,7.28-2.49,16.67,48.78Z" transform="translate(-41.36 -48.74)"/><path d="M1435.16,593.59l-20.61,4.79,7.28,31.28-7.49,1.75-7.28-31.29-22.48,5.23,7.69,33.07-7.5,1.74-9.47-40.74,65.57-15.25,9.47,40.73-7.5,1.75Z" transform="translate(-41.36 -48.74)"/><path d="M1390.58,667.66a22,22,0,0,1,5.46-8.41,21.34,21.34,0,0,1,8.19-5l4,6.64a17.17,17.17,0,0,0-8.67,6.12,13.09,13.09,0,0,0-2.43,9.94,13.74,13.74,0,0,0,4.74,9.17,12.39,12.39,0,0,0,17.25-2c1.95-2.53,3.09-5.91,3.42-10.17q.92-11.09,4.67-16.6a15.1,15.1,0,0,1,11-6.49,16.24,16.24,0,0,1,9.06,1.34,18.26,18.26,0,0,1,7.39,6.12,21,21,0,0,1,3.73,9.59,20.43,20.43,0,0,1-1.9,12.39,19.63,19.63,0,0,1-9.21,8.63l-3.94-6.84a13.23,13.23,0,0,0,5.92-5.28,11.64,11.64,0,0,0,1.5-7.86,12.51,12.51,0,0,0-3.9-8,9,9,0,0,0-7.59-2.27,8.19,8.19,0,0,0-5.79,3.79q-2.26,3.32-2.82,9.22-1.08,11.31-5.54,17.45t-12.93,7.3q-9.15,1.23-15.28-3.85T1389.51,678A21.27,21.27,0,0,1,1390.58,667.66Z" transform="translate(-41.36 -48.74)"/></svg>